<?xml version="1.0" encoding="UTF-8"?>
<!-- Created with Inkscape (http://www.inkscape.org/) -->
<svg width="149.91mm" height="29.64mm" version="1.1" viewBox="0 0 149.91 29.64" xmlns="http://www.w3.org/2000/svg">
 <defs>
  <marker id="marker365166" overflow="visible" orient="auto">
   <path transform="matrix(.2 0 0 .2 1.48 .2)" d="m-2.5-1c0 2.76-2.24 5-5 5s-5-2.24-5-5 2.24-5 5-5 5 2.24 5 5z" fill="context-stroke" fill-rule="evenodd" stroke="context-stroke" stroke-width="1pt"/>
  </marker>
  <marker id="DotS" overflow="visible" orient="auto">
   <path transform="matrix(.2 0 0 .2 1.48 .2)" d="m-2.5-1c0 2.76-2.24 5-5 5s-5-2.24-5-5 2.24-5 5-5 5 2.24 5 5z" fill="context-stroke" fill-rule="evenodd" stroke="context-stroke" stroke-width="1pt"/>
  </marker>
 </defs>
 <g transform="translate(-24.476 -105.75)">
  <g stroke-width=".31005" aria-label="bee">
   <path d="m141.62 123.8 1.2157-6.1221-3.4952 0.3582-3.2238 16.108h3.0393l0.3365-1.0421c0.48846 0.9118 1.4111 1.4111 2.5726 1.4111 2.9959 0 5.1343-2.6051 5.8507-6.1655 0.74897-3.7449-0.076-6.1112-3.0393-6.1112-1.1723 0-2.3555 0.60786-3.2564 1.5631zm0.0434 8.217c-0.74897 0-1.1832-0.36906-1.4762-1.0529l0.96607-4.8629c0.66214-0.82496 1.3677-1.3351 2.1384-1.3351 1.0855 0 1.6499 0.75983 1.0746 3.6255-0.52103 2.5943-1.4871 3.6255-2.7028 3.6255z"/>
   <path d="m153.06 129.38h7.468c0.10855-0.34735 0.22795-0.83581 0.30394-1.2266 0.74897-3.7123-0.93351-5.9158-4.2225-5.9158-3.6255 0-6.1655 2.7462-6.8493 6.1546-0.71641 3.582 0.80325 6.1221 4.7652 6.1221 1.9647 0 3.6472-0.65129 4.9172-1.5848l-0.99863-1.867c-1.0312 0.58615-2.095 0.95521-3.1479 0.95521-1.4654 0-2.388-0.74897-2.2361-2.6377zm3.0936-4.8412c1.4654 0 1.8236 1.1072 1.5088 2.7788h-4.2333c0.53188-1.9321 1.498-2.7788 2.7245-2.7788z"/>
   <path d="m166.08 129.38h7.468c0.10854-0.34735 0.22794-0.83581 0.30393-1.2266 0.74897-3.7123-0.93351-5.9158-4.2225-5.9158-3.6255 0-6.1655 2.7462-6.8493 6.1546-0.71641 3.582 0.80325 6.1221 4.7652 6.1221 1.9647 0 3.6472-0.65129 4.9172-1.5848l-0.99863-1.867c-1.0312 0.58615-2.095 0.95521-3.1479 0.95521-1.4654 0-2.388-0.74897-2.2361-2.6377zm3.0936-4.8412c1.4654 0 1.8236 1.1072 1.5088 2.7788h-4.2333c0.53188-1.9321 1.498-2.7788 2.7245-2.7788z"/>
  </g>
  <g transform="translate(9.289 -38.44)">
   <path d="m15.187 157.03h16.953v16.799h-16.953z" fill="#f3c41b" stroke-width=".26458"/>
   <g stroke-width=".31005" aria-label="W">
    <path d="m29.145 159.16h-2.578l-0.62414 10.004-0.96788-8.5571h-2.5509l-1.0402 8.5571-0.42514-10.004h-2.777l1.3568 12.537h3.1388l1.0041-8.9642 0.9136 8.9642h3.0845z"/>
   </g>
   <g transform="translate(18.011)">
    <path d="m15.187 157.03h16.953v16.799h-16.953z" stroke-width=".26458"/>
    <g fill="#f3c41b" stroke-width=".31005" aria-label="O">
     <path d="m28.684 165.42c0-4.0615-1.7368-6.5761-5.0203-6.5761s-5.0203 2.6051-5.0203 6.5761c0 4.0705 1.7368 6.5852 5.0203 6.5852s5.0203-2.6051 5.0203-6.5852zm-3.0393 0c0 3.0484-0.53369 4.4142-1.981 4.4142-1.393 0-1.981-1.3297-1.981-4.4142 0-3.0755 0.56987-4.4142 1.981-4.4142s1.981 1.3297 1.981 4.4142z"/>
    </g>
   </g>
   <g transform="translate(36.023)">
    <path d="m15.187 157.03h16.953v16.799h-16.953z" fill="#f3c41b" stroke-width=".26458"/>
    <g stroke-width=".31005" aria-label="R">
     <path d="m28.395 162.97c0-2.5961-1.7548-3.8082-5.165-3.8082h-3.9439v12.537h2.967v-4.7942h0.84124l2.7137 4.7942h3.3559l-3.2835-5.2917c1.4021-0.55178 2.5147-1.6372 2.5147-3.4373zm-3.0574 0c0 1.3297-0.69651 1.8996-1.981 1.8996h-1.1036v-3.6273h0.98597c1.384 0 2.0986 0.52464 2.0986 1.7277z"/>
    </g>
   </g>
   <g transform="translate(54.034)">
    <path d="m15.187 157.03h16.953v16.799h-16.953z" stroke-width=".26458"/>
    <g fill="#f3c41b" stroke-width=".31005" aria-label="D">
     <path d="m28.63 165.36c0-5.1741-3.0755-6.2053-6.2867-6.2053h-3.166v12.537h3.3831c3.1207 0 6.0696-1.2302 6.0696-6.3319zm-3.0755 0c0 3.3016-1.1307 4.1881-2.777 4.1881h-0.63319v-8.2405h0.63319c1.5739 0 2.777 0.67842 2.777 4.0524z"/>
    </g>
   </g>
   <g transform="translate(72.045)">
    <path d="m15.187 157.03h16.953v16.799h-16.953z" fill="#f3c41b" stroke-width=".26458"/>
    <g stroke-width=".31005" aria-label="L">
     <path d="m19.919 171.7h8.0958l0.30755-2.3428h-5.4364v-10.194h-2.967z"/>
    </g>
   </g>
   <g transform="translate(90.057)">
    <path d="m15.187 157.03h16.953v16.799h-16.953z" stroke-width=".26458"/>
    <g fill="#f3c41b" stroke-width=".31005" aria-label="E">
     <path d="m22.886 161.28h4.9298l0.2985-2.1167h-8.1953v12.537h8.2044v-2.1257h-5.2374v-3.2021h4.3419v-2.0805h-4.3419z"/>
    </g>
   </g>
  </g>
  <path d="m155.51 120.4c5.269-14.723-4.7446-16.267-6.2774-9.7892" fill="none" marker-end="url(#DotS)" stroke="#000" stroke-width="1.803"/>
  <path d="m158.74 120.71c3.2985-15.512 10.337-16.304 13.638-11.387" fill="none" marker-end="url(#marker365166)" stroke="#000" stroke-width="1.803"/>
 </g>
</svg>
